<?xml version="1.0"?>
<svg width="1024" height="1024" xmlns="http://www.w3.org/2000/svg" xmlns:svg="http://www.w3.org/2000/svg">
 <title>blue rain drop</title>
 <g>
  <title>Layer 1</title>
  <g stroke="null" id="svg_1">
   <g stroke="null" id="svg_2">
    <path stroke="#0000bf" d="m806.666603,608.191235l0,36.277932c-2.396567,6.705874 -0.326789,16.050153 -3.268036,23.085847c-13.507802,118.72753 -114.162819,226.571652 -230.94015,247.349028c-11.873806,4.72708 -25.926315,4.617236 -38.126954,6.59594l-44.662954,0c-12.200612,-1.978704 -26.253121,-1.86886 -38.126909,-6.59594c-125.927772,-21.876654 -228.484829,-144.341867 -234.20823,-271.534197l0,-37.377218c3.990257,-24.844835 9.065495,-50.679067 18.791128,-74.42458c9.847645,-19.128322 19.989394,-38.146657 31.590873,-56.065769l37.037576,-50.569151c82.844334,-99.379331 155.394405,-206.124122 209.97039,-322.433132l15.032901,32.155381c45.098755,110.867305 116.232642,209.037417 193.902618,301.271049c8.387923,12.422431 17.429468,24.515051 27.233495,36.277878c14.597162,22.646147 28.867544,45.512233 40.305621,70.357023c7.843279,20.997137 12.745266,43.643373 15.46863,65.629907z" fill="#005fbf" id="path412" stroke-width="3"/>
    <circle stroke="#0000bf" id="svg_3" r="42.951981" cy="635.115346" cx="355.888382" stroke-linecap="null" stroke-linejoin="null" stroke-dasharray="null" stroke-width="3" fill="#ffffff"/>
    <circle stroke="#0000bf" id="svg_4" r="42.951981" cy="635.115346" cx="510.233733" stroke-linecap="null" stroke-linejoin="null" stroke-dasharray="null" stroke-width="3" fill="#ffffff"/>
    <circle stroke="#0000bf" id="svg_5" r="42.951996" cy="635.115346" cx="659.302315" stroke-linecap="null" stroke-linejoin="null" stroke-dasharray="null" stroke-width="3" fill="#ffffff"/>
   </g>
  </g>
 </g>
</svg>